<?xml version="1.0" encoding="UTF-8" standalone="no"?>
<!DOCTYPE svg PUBLIC "-//W3C//DTD SVG 1.1//EN"
 "http://www.w3.org/Graphics/SVG/1.1/DTD/svg11.dtd">
<!-- Generated by graphviz version 2.44.1 (20200629.0846)
 -->
<!-- Title: test Pages: 1 -->
<svg width="211pt" height="28pt"
 viewBox="0.00 0.00 211.00 28.00" xmlns="http://www.w3.org/2000/svg" xmlns:xlink="http://www.w3.org/1999/xlink">
<g id="graph0" class="graph" transform="scale(1 1) rotate(0) translate(4 24)">
<title>test</title>
<polygon fill="white" stroke="transparent" points="-4,4 -4,-24 207,-24 207,4 -4,4"/>
<!-- Node1 -->
<g id="node1" class="node">
<title>Node1</title>
<g id="a_node1"><a xlink:title="Test implementations.">
<polygon fill="#bfbfbf" stroke="black" points="0,-0.5 0,-19.5 33,-19.5 33,-0.5 0,-0.5"/>
<text text-anchor="middle" x="16.5" y="-7.5" font-family="Helvetica,sans-Serif" font-size="10.00">test</text>
</a>
</g>
</g>
<!-- Node2 -->
<g id="node2" class="node">
<title>Node2</title>
<g id="a_node2"><a xlink:href="../../de/d07/cycle__sort_8cpp.html#a62d10c23b74b3d845caea2bf28c99488" target="_top" xlink:title="The main function implements cycleSort.">
<polygon fill="white" stroke="black" points="69,-0.5 69,-19.5 127,-19.5 127,-0.5 69,-0.5"/>
<text text-anchor="middle" x="98" y="-7.5" font-family="Helvetica,sans-Serif" font-size="10.00">cycleSort</text>
</a>
</g>
</g>
<!-- Node1&#45;&gt;Node2 -->
<g id="edge1" class="edge">
<title>Node1&#45;&gt;Node2</title>
<path fill="none" stroke="midnightblue" d="M33.21,-10C40.57,-10 49.7,-10 58.73,-10"/>
<polygon fill="midnightblue" stroke="midnightblue" points="58.78,-13.5 68.78,-10 58.78,-6.5 58.78,-13.5"/>
</g>
<!-- Node3 -->
<g id="node3" class="node">
<title>Node3</title>
<g id="a_node3"><a xlink:href="../../de/d07/cycle__sort_8cpp.html#a4b9708d87be7a409eff20e5e7e8b43c8" target="_top" xlink:title="Interchange a and b.">
<polygon fill="white" stroke="black" points="163,-0.5 163,-19.5 203,-19.5 203,-0.5 163,-0.5"/>
<text text-anchor="middle" x="183" y="-7.5" font-family="Helvetica,sans-Serif" font-size="10.00">swap</text>
</a>
</g>
</g>
<!-- Node2&#45;&gt;Node3 -->
<g id="edge2" class="edge">
<title>Node2&#45;&gt;Node3</title>
<path fill="none" stroke="midnightblue" d="M127.1,-10C135.37,-10 144.43,-10 152.76,-10"/>
<polygon fill="midnightblue" stroke="midnightblue" points="152.82,-13.5 162.82,-10 152.82,-6.5 152.82,-13.5"/>
</g>
</g>
</svg>
